<mxfile host="app.diagrams.net" agent="Mozilla/5.0 (Macintosh; Intel Mac OS X 10_15_7) AppleWebKit/537.36 (KHTML, like Gecko) Chrome/134.0.0.0 Safari/537.36" version="26.1.1">
  <diagram name="Page-1" id="2NRcpRsxniAUh_VQ4GuZ">
    <mxGraphModel dx="2040" dy="940" grid="1" gridSize="10" guides="1" tooltips="1" connect="1" arrows="1" fold="1" page="1" pageScale="1" pageWidth="850" pageHeight="1100" background="#ffffff" math="0" shadow="0">
      <root>
        <mxCell id="0" />
        <mxCell id="1" parent="0" />
        <mxCell id="KWLnXYTSGP2t3y_5yK3n-1" value="" style="whiteSpace=wrap;html=1;aspect=fixed;" parent="1" vertex="1">
          <mxGeometry x="485" y="60" width="805" height="805" as="geometry" />
        </mxCell>
        <mxCell id="KWLnXYTSGP2t3y_5yK3n-2" value="&lt;b&gt;&lt;font style=&quot;font-size: 20px;&quot;&gt;&lt;u&gt;Diagramme de cas d&#39;utilisation évalation par les pairs&lt;/u&gt;&lt;/font&gt;&lt;/b&gt;" style="text;html=1;align=center;verticalAlign=middle;whiteSpace=wrap;rounded=0;" parent="1" vertex="1">
          <mxGeometry x="610" y="90" width="540" height="30" as="geometry" />
        </mxCell>
        <mxCell id="KWLnXYTSGP2t3y_5yK3n-3" value="Enseignant" style="shape=umlActor;verticalLabelPosition=bottom;verticalAlign=top;html=1;outlineConnect=0;" parent="1" vertex="1">
          <mxGeometry x="230" y="480" width="50" height="90" as="geometry" />
        </mxCell>
        <mxCell id="KWLnXYTSGP2t3y_5yK3n-5" value="Élève" style="shape=umlActor;verticalLabelPosition=bottom;verticalAlign=top;html=1;outlineConnect=0;" parent="1" vertex="1">
          <mxGeometry x="250" y="160" width="60" height="80" as="geometry" />
        </mxCell>
        <mxCell id="KWLnXYTSGP2t3y_5yK3n-7" value="Gérer cours" style="ellipse;whiteSpace=wrap;html=1;" parent="1" vertex="1">
          <mxGeometry x="540" y="340" width="120" height="50" as="geometry" />
        </mxCell>
        <mxCell id="KWLnXYTSGP2t3y_5yK3n-8" value="Assigner l&#39;élève dans une classe" style="ellipse;whiteSpace=wrap;html=1;" parent="1" vertex="1">
          <mxGeometry x="525" y="520" width="127.5" height="55" as="geometry" />
        </mxCell>
        <mxCell id="KWLnXYTSGP2t3y_5yK3n-9" value="Gérer classe" style="ellipse;whiteSpace=wrap;html=1;" parent="1" vertex="1">
          <mxGeometry x="530" y="460" width="120" height="50" as="geometry" />
        </mxCell>
        <mxCell id="KWLnXYTSGP2t3y_5yK3n-11" value="Gérer équipe" style="ellipse;whiteSpace=wrap;html=1;" parent="1" vertex="1">
          <mxGeometry x="525" y="650" width="120" height="50" as="geometry" />
        </mxCell>
        <mxCell id="KWLnXYTSGP2t3y_5yK3n-12" value="Gérer instrument évaluation" style="ellipse;whiteSpace=wrap;html=1;" parent="1" vertex="1">
          <mxGeometry x="515" y="770" width="140" height="60" as="geometry" />
        </mxCell>
        <mxCell id="KWLnXYTSGP2t3y_5yK3n-13" value="Assigner élèves dans une équipe" style="ellipse;whiteSpace=wrap;html=1;" parent="1" vertex="1">
          <mxGeometry x="525" y="580" width="130" height="60" as="geometry" />
        </mxCell>
        <mxCell id="KWLnXYTSGP2t3y_5yK3n-16" value="" style="endArrow=none;html=1;rounded=0;entryX=0;entryY=0.5;entryDx=0;entryDy=0;" parent="1" target="KWLnXYTSGP2t3y_5yK3n-9" edge="1">
          <mxGeometry width="50" height="50" relative="1" as="geometry">
            <mxPoint x="360" y="485" as="sourcePoint" />
            <mxPoint x="405" y="447" as="targetPoint" />
            <Array as="points" />
          </mxGeometry>
        </mxCell>
        <mxCell id="KWLnXYTSGP2t3y_5yK3n-18" value="" style="endArrow=none;html=1;rounded=0;" parent="1" target="KWLnXYTSGP2t3y_5yK3n-8" edge="1">
          <mxGeometry width="50" height="50" relative="1" as="geometry">
            <mxPoint x="360" y="548" as="sourcePoint" />
            <mxPoint x="380" y="500" as="targetPoint" />
          </mxGeometry>
        </mxCell>
        <mxCell id="KWLnXYTSGP2t3y_5yK3n-19" value="" style="endArrow=none;html=1;rounded=0;entryX=0;entryY=0.5;entryDx=0;entryDy=0;" parent="1" target="KWLnXYTSGP2t3y_5yK3n-11" edge="1">
          <mxGeometry width="50" height="50" relative="1" as="geometry">
            <mxPoint x="360" y="675" as="sourcePoint" />
            <mxPoint x="830" y="430" as="targetPoint" />
            <Array as="points" />
          </mxGeometry>
        </mxCell>
        <mxCell id="KWLnXYTSGP2t3y_5yK3n-20" value="" style="endArrow=none;html=1;rounded=0;entryX=0;entryY=0.5;entryDx=0;entryDy=0;" parent="1" target="KWLnXYTSGP2t3y_5yK3n-13" edge="1">
          <mxGeometry width="50" height="50" relative="1" as="geometry">
            <mxPoint x="360" y="610" as="sourcePoint" />
            <mxPoint x="830" y="430" as="targetPoint" />
          </mxGeometry>
        </mxCell>
        <mxCell id="KWLnXYTSGP2t3y_5yK3n-21" value="" style="endArrow=none;html=1;rounded=0;entryX=0;entryY=0.5;entryDx=0;entryDy=0;" parent="1" target="KWLnXYTSGP2t3y_5yK3n-7" edge="1">
          <mxGeometry width="50" height="50" relative="1" as="geometry">
            <mxPoint x="360" y="365" as="sourcePoint" />
            <mxPoint x="540" y="360" as="targetPoint" />
          </mxGeometry>
        </mxCell>
        <mxCell id="KWLnXYTSGP2t3y_5yK3n-22" value="" style="endArrow=none;html=1;rounded=0;entryX=0;entryY=0.5;entryDx=0;entryDy=0;" parent="1" target="KWLnXYTSGP2t3y_5yK3n-12" edge="1">
          <mxGeometry width="50" height="50" relative="1" as="geometry">
            <mxPoint x="360" y="510" as="sourcePoint" />
            <mxPoint x="660" y="510" as="targetPoint" />
            <Array as="points">
              <mxPoint x="360" y="800" />
            </Array>
          </mxGeometry>
        </mxCell>
        <mxCell id="KWLnXYTSGP2t3y_5yK3n-24" value="S&#39;authentifier" style="ellipse;whiteSpace=wrap;html=1;" parent="1" vertex="1">
          <mxGeometry x="660" y="250" width="120" height="80" as="geometry" />
        </mxCell>
        <mxCell id="KWLnXYTSGP2t3y_5yK3n-25" value="S&#39;authentifier" style="ellipse;whiteSpace=wrap;html=1;" parent="1" vertex="1">
          <mxGeometry x="1000" y="450" width="120" height="80" as="geometry" />
        </mxCell>
        <mxCell id="KWLnXYTSGP2t3y_5yK3n-29" value="" style="endArrow=none;html=1;rounded=0;entryX=0;entryY=0.5;entryDx=0;entryDy=0;" parent="1" target="KWLnXYTSGP2t3y_5yK3n-24" edge="1">
          <mxGeometry width="50" height="50" relative="1" as="geometry">
            <mxPoint x="360" y="510" as="sourcePoint" />
            <mxPoint x="650" y="310" as="targetPoint" />
            <Array as="points">
              <mxPoint x="360" y="290" />
            </Array>
          </mxGeometry>
        </mxCell>
        <mxCell id="KWLnXYTSGP2t3y_5yK3n-30" value="" style="endArrow=none;html=1;rounded=0;entryX=0.5;entryY=0;entryDx=0;entryDy=0;" parent="1" target="KWLnXYTSGP2t3y_5yK3n-24" edge="1">
          <mxGeometry width="50" height="50" relative="1" as="geometry">
            <mxPoint x="360" y="230" as="sourcePoint" />
            <mxPoint x="610" y="370" as="targetPoint" />
            <Array as="points">
              <mxPoint x="720" y="230" />
            </Array>
          </mxGeometry>
        </mxCell>
        <mxCell id="KWLnXYTSGP2t3y_5yK3n-31" value="Saisir l&#39;évaluation" style="ellipse;whiteSpace=wrap;html=1;" parent="1" vertex="1">
          <mxGeometry x="677.5" y="150" width="120" height="50" as="geometry" />
        </mxCell>
        <mxCell id="KWLnXYTSGP2t3y_5yK3n-32" value="" style="endArrow=none;html=1;rounded=0;entryX=-0.001;entryY=0.42;entryDx=0;entryDy=0;entryPerimeter=0;" parent="1" target="KWLnXYTSGP2t3y_5yK3n-31" edge="1">
          <mxGeometry width="50" height="50" relative="1" as="geometry">
            <mxPoint x="360" y="230" as="sourcePoint" />
            <mxPoint x="390" y="170" as="targetPoint" />
            <Array as="points">
              <mxPoint x="360" y="170" />
            </Array>
          </mxGeometry>
        </mxCell>
        <mxCell id="LO9QVF12d6lSyf8jE8cC-1" value="" style="endArrow=none;dashed=1;html=1;rounded=0;exitX=0.97;exitY=0.375;exitDx=0;exitDy=0;exitPerimeter=0;" parent="1" source="KWLnXYTSGP2t3y_5yK3n-31" edge="1">
          <mxGeometry width="50" height="50" relative="1" as="geometry">
            <mxPoint x="690" y="190" as="sourcePoint" />
            <mxPoint x="890" y="380" as="targetPoint" />
            <Array as="points">
              <mxPoint x="890" y="170" />
            </Array>
          </mxGeometry>
        </mxCell>
        <mxCell id="LO9QVF12d6lSyf8jE8cC-2" value="Recevoir résultat d&#39;évaluation" style="ellipse;whiteSpace=wrap;html=1;" parent="1" vertex="1">
          <mxGeometry x="532.5" y="400" width="120" height="50" as="geometry" />
        </mxCell>
        <mxCell id="LO9QVF12d6lSyf8jE8cC-5" value="" style="endArrow=none;html=1;rounded=0;entryX=0;entryY=0.5;entryDx=0;entryDy=0;" parent="1" target="LO9QVF12d6lSyf8jE8cC-2" edge="1">
          <mxGeometry width="50" height="50" relative="1" as="geometry">
            <mxPoint x="360" y="425" as="sourcePoint" />
            <mxPoint x="390" y="460" as="targetPoint" />
            <Array as="points" />
          </mxGeometry>
        </mxCell>
        <mxCell id="LO9QVF12d6lSyf8jE8cC-10" value="" style="endArrow=none;dashed=1;html=1;rounded=0;exitX=1;exitY=0.5;exitDx=0;exitDy=0;" parent="1" source="KWLnXYTSGP2t3y_5yK3n-7" edge="1">
          <mxGeometry width="50" height="50" relative="1" as="geometry">
            <mxPoint x="700" y="450" as="sourcePoint" />
            <mxPoint x="890" y="500" as="targetPoint" />
            <Array as="points">
              <mxPoint x="890" y="365" />
            </Array>
          </mxGeometry>
        </mxCell>
        <mxCell id="LO9QVF12d6lSyf8jE8cC-11" value="" style="endArrow=none;dashed=1;html=1;rounded=0;exitX=1;exitY=0.5;exitDx=0;exitDy=0;" parent="1" source="LO9QVF12d6lSyf8jE8cC-2" edge="1">
          <mxGeometry width="50" height="50" relative="1" as="geometry">
            <mxPoint x="700" y="500" as="sourcePoint" />
            <mxPoint x="890" y="425" as="targetPoint" />
          </mxGeometry>
        </mxCell>
        <mxCell id="LO9QVF12d6lSyf8jE8cC-12" value="" style="endArrow=none;dashed=1;html=1;rounded=0;exitX=1;exitY=0.5;exitDx=0;exitDy=0;" parent="1" source="KWLnXYTSGP2t3y_5yK3n-9" edge="1">
          <mxGeometry width="50" height="50" relative="1" as="geometry">
            <mxPoint x="680" y="530" as="sourcePoint" />
            <mxPoint x="890" y="485" as="targetPoint" />
          </mxGeometry>
        </mxCell>
        <mxCell id="LO9QVF12d6lSyf8jE8cC-13" value="" style="endArrow=none;dashed=1;html=1;rounded=0;exitX=1;exitY=0.5;exitDx=0;exitDy=0;" parent="1" source="KWLnXYTSGP2t3y_5yK3n-12" edge="1">
          <mxGeometry width="50" height="50" relative="1" as="geometry">
            <mxPoint x="770" y="840" as="sourcePoint" />
            <mxPoint x="890" y="490" as="targetPoint" />
            <Array as="points">
              <mxPoint x="890" y="800" />
            </Array>
          </mxGeometry>
        </mxCell>
        <mxCell id="LO9QVF12d6lSyf8jE8cC-14" value="" style="endArrow=none;dashed=1;html=1;rounded=0;entryX=0;entryY=0.5;entryDx=0;entryDy=0;" parent="1" target="KWLnXYTSGP2t3y_5yK3n-25" edge="1">
          <mxGeometry width="50" height="50" relative="1" as="geometry">
            <mxPoint x="890" y="490" as="sourcePoint" />
            <mxPoint x="940" y="440" as="targetPoint" />
          </mxGeometry>
        </mxCell>
        <mxCell id="LO9QVF12d6lSyf8jE8cC-15" value="" style="endArrow=none;dashed=1;html=1;rounded=0;exitX=1;exitY=0.5;exitDx=0;exitDy=0;" parent="1" source="KWLnXYTSGP2t3y_5yK3n-8" edge="1">
          <mxGeometry width="50" height="50" relative="1" as="geometry">
            <mxPoint x="730" y="620" as="sourcePoint" />
            <mxPoint x="890" y="548" as="targetPoint" />
          </mxGeometry>
        </mxCell>
        <mxCell id="LO9QVF12d6lSyf8jE8cC-16" value="" style="endArrow=none;dashed=1;html=1;rounded=0;exitX=1;exitY=0.5;exitDx=0;exitDy=0;" parent="1" source="KWLnXYTSGP2t3y_5yK3n-13" edge="1">
          <mxGeometry width="50" height="50" relative="1" as="geometry">
            <mxPoint x="780" y="670" as="sourcePoint" />
            <mxPoint x="890" y="610" as="targetPoint" />
          </mxGeometry>
        </mxCell>
        <mxCell id="LO9QVF12d6lSyf8jE8cC-17" value="" style="endArrow=none;dashed=1;html=1;rounded=0;exitX=1;exitY=0.5;exitDx=0;exitDy=0;" parent="1" source="KWLnXYTSGP2t3y_5yK3n-11" edge="1">
          <mxGeometry width="50" height="50" relative="1" as="geometry">
            <mxPoint x="675" y="679.9999999999998" as="sourcePoint" />
            <mxPoint x="890" y="675" as="targetPoint" />
          </mxGeometry>
        </mxCell>
        <mxCell id="LO9QVF12d6lSyf8jE8cC-19" value="Gérer étudiant" style="ellipse;whiteSpace=wrap;html=1;" parent="1" vertex="1">
          <mxGeometry x="525" y="710" width="120" height="50" as="geometry" />
        </mxCell>
        <mxCell id="LO9QVF12d6lSyf8jE8cC-21" value="" style="endArrow=none;html=1;rounded=0;entryX=0;entryY=0.5;entryDx=0;entryDy=0;" parent="1" target="LO9QVF12d6lSyf8jE8cC-19" edge="1">
          <mxGeometry width="50" height="50" relative="1" as="geometry">
            <mxPoint x="360" y="735" as="sourcePoint" />
            <mxPoint x="430" y="760" as="targetPoint" />
          </mxGeometry>
        </mxCell>
        <mxCell id="LO9QVF12d6lSyf8jE8cC-23" value="" style="endArrow=none;dashed=1;html=1;rounded=0;exitX=1;exitY=0.5;exitDx=0;exitDy=0;" parent="1" source="LO9QVF12d6lSyf8jE8cC-19" edge="1">
          <mxGeometry width="50" height="50" relative="1" as="geometry">
            <mxPoint x="670" y="850" as="sourcePoint" />
            <mxPoint x="890" y="735" as="targetPoint" />
          </mxGeometry>
        </mxCell>
        <mxCell id="LO9QVF12d6lSyf8jE8cC-26" value="" style="endArrow=none;html=1;rounded=0;" parent="1" edge="1">
          <mxGeometry width="50" height="50" relative="1" as="geometry">
            <mxPoint x="290" y="520" as="sourcePoint" />
            <mxPoint x="360" y="520" as="targetPoint" />
          </mxGeometry>
        </mxCell>
        <mxCell id="LO9QVF12d6lSyf8jE8cC-27" value="" style="endArrow=none;html=1;rounded=0;" parent="1" edge="1">
          <mxGeometry width="50" height="50" relative="1" as="geometry">
            <mxPoint x="320" y="200" as="sourcePoint" />
            <mxPoint x="360" y="200" as="targetPoint" />
          </mxGeometry>
        </mxCell>
        <mxCell id="LO9QVF12d6lSyf8jE8cC-28" value="&amp;lt;&amp;lt;extends&amp;gt;&amp;gt;" style="text;html=1;align=center;verticalAlign=middle;whiteSpace=wrap;rounded=0;" parent="1" vertex="1">
          <mxGeometry x="920" y="460" width="60" height="30" as="geometry" />
        </mxCell>
      </root>
    </mxGraphModel>
  </diagram>
</mxfile>
